<svg xmlns="http://www.w3.org/2000/svg" width="512" height="512">
  <path fill="#401465" d="M160 240v32c0 8.844-7.156 16-16 16h-32c-8.844 0-16-7.156-16-16v-32c0-8.844 7.156-16 16-16h32c8.844 0 16 7.156 16 16zm-16 112h-32c-8.844 0-16 7.156-16 16v32c0 8.844 7.156 16 16 16h32c8.844 0 16-7.156 16-16v-32c0-8.844-7.156-16-16-16zm128-128h-32c-8.844 0-16 7.156-16 16v32c0 8.844 7.156 16 16 16h32c8.844 0 16-7.156 16-16v-32c0-8.844-7.156-16-16-16zm0 128h-32c-8.844 0-16 7.156-16 16v32c0 8.844 7.156 16 16 16h32c8.844 0 16-7.156 16-16v-32c0-8.844-7.156-16-16-16zm128-128h-32c-8.844 0-16 7.156-16 16v32c0 8.844 7.156 16 16 16h32c8.844 0 16-7.156 16-16v-32c0-8.844-7.156-16-16-16zm0 128h-32c-8.844 0-16 7.156-16 16v32c0 8.844 7.156 16 16 16h32c8.844 0 16-7.156 16-16v-32c0-8.844-7.156-16-16-16zM112 96h32c8.844 0 16-7.156 16-16V16c0-8.844-7.156-16-16-16h-32c-8.844 0-16 7.156-16 16v64c0 8.844 7.156 16 16 16zm400 32v320c0 35.344-28.656 64-64 64H64c-35.344 0-64-28.656-64-64V128c0-35.344 28.656-64 64-64h16v16c0 17.625 14.359 32 32 32h32c17.641 0 32-14.375 32-32V64h160v16c0 17.625 14.375 32 32 32h32c17.625 0 32-14.375 32-32V64h16c35.344 0 64 28.656 64 64zm-32 64c0-17.625-14.344-32-32-32H64c-17.641 0-32 14.375-32 32v256c0 17.656 14.359 32 32 32h384c17.656 0 32-14.344 32-32V192zM368 96h32c8.844 0 16-7.156 16-16V16c0-8.844-7.156-16-16-16h-32c-8.844 0-16 7.156-16 16v64c0 8.844 7.156 16 16 16z"/>
</svg>
