<?xml version="1.0" standalone="no"?>
<!DOCTYPE svg PUBLIC "-//W3C//DTD SVG 20010904//EN"
 "http://www.w3.org/TR/2001/REC-SVG-20010904/DTD/svg10.dtd">
<svg version="1.0" xmlns="http://www.w3.org/2000/svg"
 width="700.000000pt" height="700.000000pt" viewBox="0 0 700.000000 700.000000"
 preserveAspectRatio="xMidYMid meet">
<metadata>
Created by potrace 1.11, written by Peter Selinger 2001-2013
</metadata>
<g transform="translate(0.000000,700.000000) scale(0.100000,-0.100000)"
fill="#000000" stroke="none">
<path d="M1445 6982 c-22 -11 -54 -34 -72 -52 -60 -61 -60 -67 -59 -600 1
-453 2 -487 20 -519 27 -51 83 -100 128 -112 25 -6 141 -9 311 -7 296 3 294 3
355 66 58 61 57 45 59 562 3 527 1 548 -59 608 -64 67 -65 67 -368 70 -250 2
-279 1 -315 -16z"/>
<path d="M4940 6979 c-51 -24 -106 -90 -120 -141 -5 -18 -8 -249 -7 -513 2
-451 3 -482 21 -515 27 -50 80 -95 127 -109 43 -13 519 -16 568 -4 38 9 109
60 116 83 3 11 10 20 15 20 23 0 30 127 29 555 -2 495 -4 515 -61 573 -64 67
-65 67 -368 70 -264 2 -277 1 -320 -19z"/>
<path d="M785 6122 c-123 -13 -289 -74 -402 -149 -139 -91 -274 -265 -329
-423 -56 -162 -53 -28 -53 -2500 l0 -2285 24 -91 c45 -177 126 -316 253 -435
58 -55 180 -143 201 -144 3 -1 20 -8 38 -18 17 -9 71 -29 120 -44 l88 -28
2745 -2 c1849 -2 2761 1 2795 8 28 6 60 12 73 15 34 7 142 48 193 74 156 80
307 237 384 400 20 40 53 135 60 165 2 11 8 43 14 70 13 65 14 4563 0 4653
-51 349 -332 643 -685 717 -96 20 -394 29 -395 11 0 -6 -2 -74 -4 -151 -3
-147 -14 -201 -60 -280 -38 -65 -114 -133 -195 -173 l-75 -37 -305 -2 c-328
-3 -347 -1 -446 50 -58 30 -136 105 -169 161 -46 81 -57 133 -61 286 -1 80 -3
147 -3 150 -2 11 -2181 6 -2182 -5 0 -5 -2 -73 -3 -150 -3 -109 -8 -152 -23
-195 -43 -119 -117 -202 -233 -258 l-75 -37 -305 -2 c-359 -3 -393 3 -503 89
-129 100 -168 192 -173 408 -1 80 -3 148 -3 151 -1 5 -252 6 -306 1z m5445
-1322 c69 -18 153 -67 205 -118 57 -58 113 -168 121 -242 9 -76 9 -3573 0
-3635 -26 -177 -184 -333 -366 -361 -45 -8 -5347 -6 -5391 1 -24 4 -76 22
-114 40 -123 59 -221 188 -241 320 -4 28 -7 856 -7 1840 0 1581 2 1796 16
1841 22 74 53 130 100 181 86 94 176 135 312 143 50 3 1267 4 2705 3 1987 -1
2626 -4 2660 -13z"/>
<path d="M1462 3926 c-50 -18 -100 -62 -126 -114 -22 -45 -23 -57 -24 -292 -2
-277 4 -320 53 -378 64 -73 77 -76 368 -78 142 -1 275 3 296 8 50 13 106 59
133 111 21 39 23 57 25 287 2 139 -2 267 -7 296 -13 63 -56 117 -119 149 -47
23 -53 24 -307 23 -167 0 -271 -4 -292 -12z"/>
<path d="M3212 3927 c-18 -5 -52 -27 -76 -48 -67 -59 -74 -98 -75 -374 0 -126
5 -251 10 -277 16 -69 73 -130 141 -151 74 -23 510 -22 578 0 53 18 94 53 123
108 20 38 22 55 23 300 2 328 -5 354 -111 424 l-40 26 -270 1 c-162 1 -283 -3
-303 -9z"/>
<path d="M4950 3921 c-59 -24 -115 -88 -129 -149 -7 -29 -10 -143 -9 -302 3
-242 4 -257 25 -290 12 -19 34 -47 50 -62 53 -50 93 -56 376 -55 142 0 260 4
263 9 3 4 14 8 25 8 33 0 114 89 127 140 17 70 14 525 -5 575 -19 50 -88 117
-136 132 -23 7 -133 11 -289 11 -220 1 -259 -2 -298 -17z"/>
<path d="M1445 2166 c-59 -28 -96 -66 -117 -121 -19 -50 -23 -523 -5 -583 15
-48 91 -124 139 -139 24 -7 131 -10 300 -9 251 1 265 2 305 23 51 28 98 84
111 133 13 52 13 506 0 558 -12 47 -64 113 -111 139 -28 15 -65 18 -302 20
-265 2 -271 2 -320 -21z"/>
<path d="M3210 2173 c-52 -17 -82 -42 -118 -98 l-27 -40 -1 -272 c-2 -263 -1
-274 21 -321 25 -54 79 -104 130 -119 21 -7 137 -10 302 -9 226 2 273 5 298
19 44 24 81 66 104 117 18 41 19 66 17 310 -2 251 -3 267 -24 307 -28 53 -83
98 -137 112 -69 17 -510 13 -565 -6z"/>
<path d="M4960 2177 c-46 -15 -122 -92 -137 -139 -15 -50 -15 -526 0 -576 15
-49 91 -124 142 -139 28 -8 120 -11 300 -10 245 2 262 3 300 24 51 27 79 57
103 112 19 40 20 65 19 315 l-2 271 -27 42 c-31 47 -78 85 -124 101 -42 14
-528 13 -574 -1z"/>
</g>
</svg>
